<?xml version="1.0" encoding="UTF-8"?>
<!DOCTYPE svg PUBLIC "-//W3C//DTD SVG 1.1//EN" "http://www.w3.org/Graphics/SVG/1.1/DTD/svg11.dtd">
<svg xmlns="http://www.w3.org/2000/svg" version="1.1" width="866px" height="205px" style="shape-rendering:geometricPrecision; text-rendering:geometricPrecision; image-rendering:optimizeQuality; fill-rule:evenodd; clip-rule:evenodd" xmlns:xlink="http://www.w3.org/1999/xlink">
<g><path style="opacity:1" fill="#fdfdfd" d="M -0.5,-0.5 C 288.167,-0.5 576.833,-0.5 865.5,-0.5C 865.5,67.8333 865.5,136.167 865.5,204.5C 576.833,204.5 288.167,204.5 -0.5,204.5C -0.5,136.167 -0.5,67.8333 -0.5,-0.5 Z"/></g>
<g><path style="opacity:1" fill="#862d2b" d="M 516.5,37.5 C 516.5,37.1667 516.5,36.8333 516.5,36.5C 623.5,36.5 730.5,36.5 837.5,36.5C 837.813,40.0419 837.479,43.3752 836.5,46.5C 836.777,43.5525 836.444,40.7191 835.5,38C 729.167,37.5 622.834,37.3333 516.5,37.5 Z"/></g>
<g><path style="opacity:1" fill="#b81f20" d="M 516.5,37.5 C 622.834,37.3333 729.167,37.5 835.5,38C 836.444,40.7191 836.777,43.5525 836.5,46.5C 835.674,50.1359 835.008,53.8026 834.5,57.5C 833.5,59.5 832.5,61.5 831.5,63.5C 832.366,56.7853 833.7,50.1187 835.5,43.5C 835.489,41.9549 835.156,40.6216 834.5,39.5C 765.002,38.5008 695.335,38.1675 625.5,38.5C 589.498,38.3333 553.498,38.5 517.5,39C 516.518,41.7383 515.852,44.5716 515.5,47.5C 514.539,50.0547 513.206,52.388 511.5,54.5C 513.325,48.8624 514.992,43.1958 516.5,37.5 Z"/></g>
<g><path style="opacity:1" fill="#eb0b0d" d="M 625.5,38.5 C 626.712,40.8515 626.045,42.6849 623.5,44C 624.411,46.5654 624.078,49.0654 622.5,51.5C 621.692,51.1924 621.025,50.6924 620.5,50C 623.735,44.611 622.401,42.4443 616.5,43.5C 584.79,43.8185 553.123,43.4852 521.5,42.5C 520.883,42.6107 520.383,42.944 520,43.5C 518.671,49.1481 517.504,54.8147 516.5,60.5C 515.178,60.33 514.011,60.6634 513,61.5C 512.833,60.5 512.667,59.5 512.5,58.5C 514.282,55.0386 515.282,51.3719 515.5,47.5C 515.852,44.5716 516.518,41.7383 517.5,39C 553.498,38.5 589.498,38.3333 625.5,38.5 Z"/></g>
<g><path style="opacity:1" fill="#ec1b24" d="M 521.5,42.5 C 553.123,43.4852 584.79,43.8185 616.5,43.5C 616.5,44.8333 616.5,46.1667 616.5,47.5C 614.833,47.5 613.167,47.5 611.5,47.5C 612.056,55.1676 612.223,62.8342 612,70.5C 610.668,75.4846 609.168,80.4846 607.5,85.5C 604.857,88.2243 603.857,91.5576 604.5,95.5C 603.167,95.5 601.833,95.5 600.5,95.5C 598.912,97.6824 597.912,100.182 597.5,103C 597.667,104.167 597.833,105.333 598,106.5C 598.667,105.167 599.333,105.167 600,106.5C 600.979,112.701 600.146,118.701 597.5,124.5C 597.886,127.343 597.886,130.343 597.5,133.5C 593.463,136.778 592.13,140.944 593.5,146C 592.034,148.795 590.2,151.295 588,153.5C 587.505,155.473 587.338,157.473 587.5,159.5C 588.833,159.5 590.167,159.5 591.5,159.5C 591.442,162.664 590.776,165.664 589.5,168.5C 587.5,168.5 585.5,168.5 583.5,168.5C 583.5,167.5 583.5,166.5 583.5,165.5C 559.591,165.42 535.591,165.587 511.5,166C 505.5,166.333 499.5,166.667 493.5,167C 492.756,168.039 491.756,168.539 490.5,168.5C 491.473,166.7 492.473,164.866 493.5,163C 493.167,162.667 492.833,162.333 492.5,162C 494.272,157.43 495.938,152.764 497.5,148C 496.855,144.932 496.855,141.432 497.5,137.5C 498.376,137.631 499.043,137.298 499.5,136.5C 501.577,131.119 503.244,125.619 504.5,120C 504.046,117.97 503.38,116.137 502.5,114.5C 502.068,111.123 502.735,108.123 504.5,105.5C 503.833,107.819 503.666,110.153 504,112.5C 505.158,112.002 505.991,111.169 506.5,110C 507.959,103.849 509.459,97.6819 511,91.5C 511.667,88.5 511.667,85.5 511,82.5C 510.484,85.2506 509.317,87.5839 507.5,89.5C 506.534,91.396 506.201,93.396 506.5,95.5C 505.5,95.5 504.5,95.5 503.5,95.5C 505.256,89.2994 506.256,82.9661 506.5,76.5C 508.477,73.0074 510.31,69.3407 512,65.5C 511.781,70.4848 511.781,75.4848 512,80.5C 513.046,78.9095 514.213,77.4095 515.5,76C 515.167,75.6667 514.833,75.3333 514.5,75C 517.118,68.9294 519.284,62.7627 521,56.5C 521.889,51.7463 522.055,47.0796 521.5,42.5 Z"/></g>
<g><path style="opacity:1" fill="#fddcd7" d="M 516.5,36.5 C 516.5,36.8333 516.5,37.1667 516.5,37.5C 514.992,43.1958 513.325,48.8624 511.5,54.5C 510.073,60.675 508.406,66.675 506.5,72.5C 508.143,61.4544 509.976,50.4544 512,39.5C 513.271,38.1175 514.771,37.1175 516.5,36.5 Z"/></g>
<g><path style="opacity:1" fill="#040404" d="M 76.5,61.5 C 82.238,61.8197 87.9047,62.6531 93.5,64C 97.3189,65.0735 100.652,66.9068 103.5,69.5C 100.146,73.0191 96.9798,76.6858 94,80.5C 85.1396,74.1006 75.6396,72.9339 65.5,77C 62.5713,79.9101 61.9046,83.2434 63.5,87C 71.7215,89.4072 79.7215,92.4072 87.5,96C 92.7404,99.5638 94.5738,104.397 93,110.5C 89.3182,124.18 80.4848,132.347 66.5,135C 55.5428,137.13 44.8762,136.13 34.5,132C 32.1667,130.333 29.8333,128.667 27.5,127C 31.0416,123.29 34.7083,119.79 38.5,116.5C 46.7521,123.027 56.0854,125.193 66.5,123C 72.9573,121.242 75.7907,117.075 75,110.5C 72.7487,108.623 70.2487,107.123 67.5,106C 61.6617,104.458 55.995,102.458 50.5,100C 46.3926,97.45 44.3926,93.7833 44.5,89C 45.9558,77.2038 52.2891,69.2038 63.5,65C 67.8602,63.4171 72.1936,62.2505 76.5,61.5 Z"/></g>
<g><path style="opacity:1" fill="#040404" d="M 151.5,61.5 C 158.545,61.3954 165.211,62.8954 171.5,66C 173.941,68.6532 174.941,71.8199 174.5,75.5C 174.333,77.5 174.167,79.5 174,81.5C 168.056,99.1649 162.223,116.832 156.5,134.5C 151.489,134.666 146.489,134.499 141.5,134C 142.76,132.186 142.76,130.353 141.5,128.5C 130.588,134.983 118.922,137.15 106.5,135C 100.223,132.193 97.7229,127.36 99,120.5C 102.501,107.803 110.668,99.6367 123.5,96C 133.915,93.1276 144.415,90.961 155,89.5C 156.434,85.5935 156.767,81.5935 156,77.5C 150.521,74.0102 144.687,73.5102 138.5,76C 132.331,77.9281 126.331,80.0948 120.5,82.5C 120.252,79.4196 119.586,76.4196 118.5,73.5C 122.14,70.0065 126.473,67.5065 131.5,66C 138.201,64.0297 144.868,62.5297 151.5,61.5 Z"/></g>
<g><path style="opacity:1" fill="#040404" d="M 221.5,61.5 C 231.553,60.9655 240.553,63.6321 248.5,69.5C 245.806,73.5399 242.639,77.2065 239,80.5C 230.127,74.1001 220.627,72.9335 210.5,77C 207.571,79.9101 206.905,83.2434 208.5,87C 214.392,89.3068 220.392,91.3068 226.5,93C 239.331,99.1753 241.831,108.342 234,120.5C 225.335,131.181 214.002,136.515 200,136.5C 189.612,136.618 180.446,133.452 172.5,127C 176.015,123.318 179.682,119.818 183.5,116.5C 191.752,123.027 201.085,125.193 211.5,123C 217.957,121.242 220.791,117.075 220,110.5C 217.749,108.623 215.249,107.123 212.5,106C 206.662,104.458 200.995,102.458 195.5,100C 191.41,97.4874 189.41,93.8207 189.5,89C 191.362,76.462 198.362,68.1287 210.5,64C 214.28,63.082 217.946,62.2487 221.5,61.5 Z"/></g>
<g><path style="opacity:1" fill="#030303" d="M 296.5,61.5 C 303.201,61.5049 309.535,63.0049 315.5,66C 321.117,71.7113 322.95,78.5447 321,86.5C 319.73,91.7073 317.896,96.7073 315.5,101.5C 299.51,102.333 283.51,102.833 267.5,103C 263.533,112.891 266.533,119.558 276.5,123C 281.223,123.624 285.89,123.29 290.5,122C 294.865,120.479 299.198,118.979 303.5,117.5C 303.692,120.601 304.358,123.601 305.5,126.5C 291.331,135.69 275.998,138.19 259.5,134C 250.234,128.8 246.734,120.967 249,110.5C 253.993,83.3444 269.826,67.011 296.5,61.5 Z"/></g>
<g><path style="opacity:1" fill="#040304" d="M 327.5,163.5 C 326.209,163.263 325.209,163.596 324.5,164.5C 323.5,164.5 322.5,164.5 321.5,164.5C 315.5,164.5 309.5,164.5 303.5,164.5C 302.167,164.5 300.833,164.5 299.5,164.5C 301.581,160.57 303.914,156.736 306.5,153C 314.315,154.475 321.649,153.142 328.5,149C 333.21,144.892 337.21,140.225 340.5,135C 338.866,134.506 337.199,134.34 335.5,134.5C 334.991,110.801 333.991,87.1344 332.5,63.5C 338.5,63.5 344.5,63.5 350.5,63.5C 350.687,81.878 350.854,100.211 351,118.5C 363.03,100.635 374.863,82.6353 386.5,64.5C 392.472,63.3364 398.472,63.1697 404.5,64C 386.276,89.8926 368.442,116.059 351,142.5C 344.512,151.163 336.679,158.163 327.5,163.5 Z"/></g>
<g><path style="opacity:1" fill="#030303" d="M 421.5,63.5 C 425.182,63.3347 428.848,63.5014 432.5,64C 426.235,81.1295 420.568,98.4628 415.5,116C 416.057,121.376 419.057,123.543 424.5,122.5C 431.491,122.5 437.824,120.5 443.5,116.5C 449.231,99.4736 455.064,82.4736 461,65.5C 466.352,63.9473 471.852,63.2806 477.5,63.5C 470.037,87.2225 462.37,110.889 454.5,134.5C 449.456,134.827 444.456,134.494 439.5,133.5C 440.681,131.802 440.681,130.135 439.5,128.5C 427.851,135.521 415.518,137.354 402.5,134C 397.182,128.742 395.682,122.575 398,115.5C 403.735,98.7957 409.568,82.129 415.5,65.5C 417.631,64.8313 419.631,64.1646 421.5,63.5 Z"/></g>
<g><path style="opacity:1" fill="#f7c6c6" d="M 834.5,57.5 C 833.883,65.9868 831.883,73.9868 828.5,81.5C 829.117,76.415 830.117,71.415 831.5,66.5C 831.5,65.5 831.5,64.5 831.5,63.5C 832.5,61.5 833.5,59.5 834.5,57.5 Z"/></g>
<g><path style="opacity:1" fill="#d82f2c" d="M 521.5,42.5 C 522.055,47.0796 521.889,51.7463 521,56.5C 519.284,62.7627 517.118,68.9294 514.5,75C 514.833,75.3333 515.167,75.6667 515.5,76C 514.213,77.4095 513.046,78.9095 512,80.5C 511.781,75.4848 511.781,70.4848 512,65.5C 510.31,69.3407 508.477,73.0074 506.5,76.5C 506.5,75.1667 506.5,73.8333 506.5,72.5C 508.406,66.675 510.073,60.675 511.5,54.5C 513.206,52.388 514.539,50.0547 515.5,47.5C 515.282,51.3719 514.282,55.0386 512.5,58.5C 512.667,59.5 512.833,60.5 513,61.5C 514.011,60.6634 515.178,60.33 516.5,60.5C 517.504,54.8147 518.671,49.1481 520,43.5C 520.383,42.944 520.883,42.6107 521.5,42.5 Z"/></g>
<g><path style="opacity:1" fill="#f6f6f6" d="M 290.5,73.5 C 303.096,72.4136 307.43,77.7469 303.5,89.5C 293.183,90.6656 282.849,90.8323 272.5,90C 276.168,81.8272 282.168,76.3272 290.5,73.5 Z"/></g>
<g><path style="opacity:1" fill="#be2722" d="M 831.5,66.5 C 830.117,71.415 829.117,76.415 828.5,81.5C 826.298,88.1069 824.298,94.7735 822.5,101.5C 823.19,97.4422 823.19,93.4422 822.5,89.5C 823.242,88.7132 824.075,88.0465 825,87.5C 826.037,81.7613 827.37,76.0946 829,70.5C 829.2,68.6803 830.034,67.347 831.5,66.5 Z"/></g>
<g><path style="opacity:1" fill="#d41414" d="M 625.5,38.5 C 695.335,38.1675 765.002,38.5008 834.5,39.5C 835.156,40.6216 835.489,41.9549 835.5,43.5C 833.7,50.1187 832.366,56.7853 831.5,63.5C 831.5,64.5 831.5,65.5 831.5,66.5C 830.034,67.347 829.2,68.6803 829,70.5C 827.37,76.0946 826.037,81.7613 825,87.5C 824.075,88.0465 823.242,88.7132 822.5,89.5C 823.19,93.4422 823.19,97.4422 822.5,101.5C 820.038,111.81 817.705,122.143 815.5,132.5C 814.542,132.953 813.708,133.619 813,134.5C 809.85,146.778 807.017,159.111 804.5,171.5C 696.195,172.494 587.862,172.827 479.5,172.5C 479.5,172.167 479.5,171.833 479.5,171.5C 516.835,171.667 554.168,171.5 591.5,171C 594.902,164.044 596.402,156.544 596,148.5C 595.176,152.551 593.676,156.218 591.5,159.5C 590.167,159.5 588.833,159.5 587.5,159.5C 587.338,157.473 587.505,155.473 588,153.5C 590.2,151.295 592.034,148.795 593.5,146C 592.13,140.944 593.463,136.778 597.5,133.5C 601.126,120.94 604.793,108.273 608.5,95.5C 612.72,77.4606 616.386,61.4606 619.5,47.5C 618.5,47.5 617.5,47.5 616.5,47.5C 616.5,46.1667 616.5,44.8333 616.5,43.5C 622.401,42.4443 623.735,44.611 620.5,50C 621.025,50.6924 621.692,51.1924 622.5,51.5C 624.078,49.0654 624.411,46.5654 623.5,44C 626.045,42.6849 626.712,40.8515 625.5,38.5 Z"/></g>
<g><path style="opacity:1" fill="#c22424" d="M 616.5,82.5 C 615.166,88.8347 613.833,95.1681 612.5,101.5C 610.708,106.465 609.041,111.465 607.5,116.5C 608.331,110.176 609.165,103.843 610,97.5C 612.476,92.5512 614.643,87.5512 616.5,82.5 Z"/></g>
<g><path style="opacity:1" fill="#fde5e3" d="M 718.5,63.5 C 717.5,68.8348 716.5,74.1681 715.5,79.5C 711.041,91.7641 707.708,104.431 705.5,117.5C 705.167,117.5 704.833,117.5 704.5,117.5C 704.836,111.468 705.503,105.468 706.5,99.5C 707.086,99.2907 707.586,98.9574 708,98.5C 708.146,94.9313 708.98,91.598 710.5,88.5C 709.758,86.0202 708.758,83.6869 707.5,81.5C 708.9,79.0747 710.066,79.4081 711,82.5C 712.632,77.9704 713.632,73.3038 714,68.5C 715.736,66.9368 717.236,65.2701 718.5,63.5 Z"/></g>
<g><path style="opacity:1" fill="#de3234" d="M 827.5,43.5 C 828.833,43.5 830.167,43.5 831.5,43.5C 826.807,64.2702 821.807,84.9369 816.5,105.5C 816.391,97.6507 816.224,89.6507 816,81.5C 816.936,86.6131 818.269,86.6131 820,81.5C 821.351,72.2285 823.518,63.2285 826.5,54.5C 826.274,52.8114 825.941,51.1447 825.5,49.5C 825.818,48.3527 826.484,47.5194 827.5,47C 825.069,45.9076 825.069,44.7409 827.5,43.5 Z"/></g>
<g><path style="opacity:1" fill="#df3334" d="M 729.5,44.5 C 730.638,47.3035 730.805,50.3035 730,53.5C 726.945,60.279 725.945,67.279 727,74.5C 726.333,73.8333 725.667,73.1667 725,72.5C 723.528,76.7232 722.528,81.0566 722,85.5C 721.586,85.9574 721.086,86.2907 720.5,86.5C 718.677,94.7817 717.344,103.115 716.5,111.5C 715.5,111.5 714.5,111.5 713.5,111.5C 713.608,116.87 713.275,122.203 712.5,127.5C 711.167,127.5 709.833,127.5 708.5,127.5C 715.357,99.7399 722.357,72.0733 729.5,44.5 Z"/></g>
<g><path style="opacity:1" fill="#ec1b24" d="M 731.5,42.5 C 763.456,43.4853 795.456,43.8187 827.5,43.5C 825.069,44.7409 825.069,45.9076 827.5,47C 826.484,47.5194 825.818,48.3527 825.5,49.5C 825.941,51.1447 826.274,52.8114 826.5,54.5C 823.518,63.2285 821.351,72.2285 820,81.5C 818.269,86.6131 816.936,86.6131 816,81.5C 816.224,89.6507 816.391,97.6507 816.5,105.5C 816.672,106.492 816.338,107.158 815.5,107.5C 809.419,116.718 807.086,126.718 808.5,137.5C 805.985,147.892 803.319,158.226 800.5,168.5C 799.466,167.313 798.133,166.48 796.5,166C 783.667,165.833 770.833,165.667 758,165.5C 738.644,165.33 719.477,165.997 700.5,167.5C 699.504,167.414 698.671,167.748 698,168.5C 697.833,168 697.667,167.5 697.5,167C 701.205,153.7 704.871,140.534 708.5,127.5C 709.833,127.5 711.167,127.5 712.5,127.5C 713.275,122.203 713.608,116.87 713.5,111.5C 714.5,111.5 715.5,111.5 716.5,111.5C 717.344,103.115 718.677,94.7817 720.5,86.5C 721.086,86.2907 721.586,85.9574 722,85.5C 722.528,81.0566 723.528,76.7232 725,72.5C 725.667,73.1667 726.333,73.8333 727,74.5C 725.945,67.279 726.945,60.279 730,53.5C 730.805,50.3035 730.638,47.3035 729.5,44.5C 729.833,43.5 730.5,42.8333 731.5,42.5 Z"/></g>
<g><path style="opacity:1" fill="#fefefd" d="M 720.5,56.5 C 720.279,59.0673 719.612,61.4006 718.5,63.5C 717.236,65.2701 715.736,66.9368 714,68.5C 713.632,73.3038 712.632,77.9704 711,82.5C 710.066,79.4081 708.9,79.0747 707.5,81.5C 708.758,83.6869 709.758,86.0202 710.5,88.5C 708.98,91.598 708.146,94.9313 708,98.5C 707.586,98.9574 707.086,99.2907 706.5,99.5C 705.503,105.468 704.836,111.468 704.5,117.5C 704.243,121.171 703.243,124.505 701.5,127.5C 700.883,127.611 700.383,127.944 700,128.5C 699.249,133.995 697.916,139.328 696,144.5C 695.282,143.549 694.449,143.383 693.5,144C 694.617,147.073 694.784,150.24 694,153.5C 692.534,158.096 691.368,162.763 690.5,167.5C 659.5,167.5 628.5,167.5 597.5,167.5C 596.964,164.335 597.797,161.669 600,159.5C 601.291,152.881 602.124,146.215 602.5,139.5C 603.649,139.209 604.316,138.376 604.5,137C 605.869,133.988 606.536,130.821 606.5,127.5C 607.552,127.649 608.552,127.483 609.5,127C 608.289,126.107 608.289,125.274 609.5,124.5C 610.251,125.376 610.751,126.376 611,127.5C 611.92,127.07 612.753,126.736 613.5,126.5C 611.518,124.19 610.518,121.524 610.5,118.5C 612.022,112.945 612.689,107.278 612.5,101.5C 616.304,90.9576 619.804,80.2909 623,69.5C 623.495,67.5273 623.662,65.5273 623.5,63.5C 624.5,63.5 625.5,63.5 626.5,63.5C 628.006,57.2689 628.673,50.9355 628.5,44.5C 659.5,44.5 690.5,44.5 721.5,44.5C 720.728,48.4517 720.395,52.4517 720.5,56.5 Z"/></g>
<g><path style="opacity:1" fill="#fee2df" d="M 722.5,47.5 C 722.324,50.7273 721.657,53.7273 720.5,56.5C 720.395,52.4517 720.728,48.4517 721.5,44.5C 690.5,44.5 659.5,44.5 628.5,44.5C 628.673,50.9355 628.006,57.2689 626.5,63.5C 625.5,63.5 624.5,63.5 623.5,63.5C 623.662,65.5273 623.495,67.5273 623,69.5C 619.804,80.2909 616.304,90.9576 612.5,101.5C 613.833,95.1681 615.166,88.8347 616.5,82.5C 619.867,70.7447 623.201,59.078 626.5,47.5C 627.434,46.4324 627.768,45.099 627.5,43.5C 659.167,43.5 690.833,43.5 722.5,43.5C 722.5,44.8333 722.5,46.1667 722.5,47.5 Z"/></g>
<g><path style="opacity:1" fill="#fec8c3" d="M 722.5,47.5 C 722.5,46.1667 722.5,44.8333 722.5,43.5C 690.833,43.5 659.167,43.5 627.5,43.5C 627.768,45.099 627.434,46.4324 626.5,47.5C 626.5,45.8333 626.5,44.1667 626.5,42.5C 658.833,42.5 691.167,42.5 723.5,42.5C 723.784,44.4147 723.451,46.0813 722.5,47.5 Z"/></g>
<g><path style="opacity:1" fill="#f00a0c" d="M 834.5,39.5 C 834.5,40.8333 834.5,42.1667 834.5,43.5C 833.5,43.5 832.5,43.5 831.5,43.5C 830.167,43.5 828.833,43.5 827.5,43.5C 795.456,43.8187 763.456,43.4853 731.5,42.5C 729.631,41.8354 727.631,41.1687 725.5,40.5C 761.827,39.5001 798.161,39.1668 834.5,39.5 Z"/></g>
<g><path style="opacity:1" fill="#969696" d="M 144.5,102.5 C 146.265,101.539 148.265,101.205 150.5,101.5C 150.737,102.791 150.404,103.791 149.5,104.5C 148.448,102.744 146.781,102.077 144.5,102.5 Z"/></g>
<g><path style="opacity:1" fill="#f6f6f6" d="M 144.5,102.5 C 146.781,102.077 148.448,102.744 149.5,104.5C 148.327,109.186 146.66,113.686 144.5,118C 137.005,122.208 129.005,123.875 120.5,123C 117.71,120.79 116.877,117.956 118,114.5C 120.618,109.884 124.451,106.717 129.5,105C 134.375,103.364 139.375,102.531 144.5,102.5 Z"/></g>
<g><path style="opacity:1" fill="#d62e2b" d="M 506.5,76.5 C 506.256,82.9661 505.256,89.2994 503.5,95.5C 504.5,95.5 505.5,95.5 506.5,95.5C 506.201,93.396 506.534,91.396 507.5,89.5C 509.317,87.5839 510.484,85.2506 511,82.5C 511.667,85.5 511.667,88.5 511,91.5C 509.459,97.6819 507.959,103.849 506.5,110C 505.991,111.169 505.158,112.002 504,112.5C 503.666,110.153 503.833,107.819 504.5,105.5C 504.808,103.076 504.474,100.743 503.5,98.5C 501.356,104.412 499.522,110.412 498,116.5C 497.623,117.942 496.79,118.942 495.5,119.5C 498.21,109.956 500.543,100.289 502.5,90.5C 503.669,85.6753 505.002,81.0086 506.5,76.5 Z"/></g>
<g><path style="opacity:1" fill="#e3272c" d="M 597.5,133.5 C 597.886,130.343 597.886,127.343 597.5,124.5C 600.146,118.701 600.979,112.701 600,106.5C 599.333,105.167 598.667,105.167 598,106.5C 597.833,105.333 597.667,104.167 597.5,103C 597.912,100.182 598.912,97.6824 600.5,95.5C 601.833,95.5 603.167,95.5 604.5,95.5C 603.857,91.5576 604.857,88.2243 607.5,85.5C 609.168,80.4846 610.668,75.4846 612,70.5C 612.223,62.8342 612.056,55.1676 611.5,47.5C 613.167,47.5 614.833,47.5 616.5,47.5C 617.5,47.5 618.5,47.5 619.5,47.5C 616.386,61.4606 612.72,77.4606 608.5,95.5C 604.793,108.273 601.126,120.94 597.5,133.5 Z"/></g>
<g><path style="opacity:1" fill="#be2e2a" d="M 715.5,79.5 C 713.874,92.7105 710.541,105.377 705.5,117.5C 707.708,104.431 711.041,91.7641 715.5,79.5 Z"/></g>
<g><path style="opacity:1" fill="#fde2df" d="M 612.5,101.5 C 612.689,107.278 612.022,112.945 610.5,118.5C 610.518,121.524 611.518,124.19 613.5,126.5C 612.753,126.736 611.92,127.07 611,127.5C 610.751,126.376 610.251,125.376 609.5,124.5C 608.289,125.274 608.289,126.107 609.5,127C 608.552,127.483 607.552,127.649 606.5,127.5C 606.536,130.821 605.869,133.988 604.5,137C 604.316,138.376 603.649,139.209 602.5,139.5C 604.016,131.774 605.682,124.107 607.5,116.5C 609.041,111.465 610.708,106.465 612.5,101.5 Z"/></g>
<g><path style="opacity:1" fill="#fed9d4" d="M 502.5,90.5 C 500.543,100.289 498.21,109.956 495.5,119.5C 495.5,119.833 495.5,120.167 495.5,120.5C 493.833,125.833 492.167,131.167 490.5,136.5C 491.617,129.517 492.784,122.517 494,115.5C 496.88,107.717 499.214,99.7173 501,91.5C 501.383,90.944 501.883,90.6107 502.5,90.5 Z"/></g>
<g><path style="opacity:1" fill="#db0f11" d="M 504.5,105.5 C 502.735,108.123 502.068,111.123 502.5,114.5C 500.359,122.063 498.693,129.73 497.5,137.5C 495.412,144.975 493.079,152.308 490.5,159.5C 489.5,159.5 488.5,159.5 487.5,159.5C 489.15,153.285 490.15,146.952 490.5,140.5C 493.921,134.434 495.587,127.767 495.5,120.5C 495.5,120.167 495.5,119.833 495.5,119.5C 496.79,118.942 497.623,117.942 498,116.5C 499.522,110.412 501.356,104.412 503.5,98.5C 504.474,100.743 504.808,103.076 504.5,105.5 Z"/></g>
<g><path style="opacity:1" fill="#dd3535" d="M 815.5,107.5 C 813.491,117.539 811.158,127.539 808.5,137.5C 807.086,126.718 809.419,116.718 815.5,107.5 Z"/></g>
<g><path style="opacity:1" fill="#dc3332" d="M 502.5,114.5 C 503.38,116.137 504.046,117.97 504.5,120C 503.244,125.619 501.577,131.119 499.5,136.5C 499.043,137.298 498.376,137.631 497.5,137.5C 498.693,129.73 500.359,122.063 502.5,114.5 Z"/></g>
<g><path style="opacity:1" fill="#c43d3a" d="M 495.5,120.5 C 495.587,127.767 493.921,134.434 490.5,140.5C 490.5,139.833 490.5,139.167 490.5,138.5C 490.5,137.833 490.5,137.167 490.5,136.5C 492.167,131.167 493.833,125.833 495.5,120.5 Z"/></g>
<g><path style="opacity:1" fill="#c12621" d="M 704.5,117.5 C 704.833,117.5 705.167,117.5 705.5,117.5C 704.256,125.571 702.59,133.571 700.5,141.5C 700.253,142.713 699.586,143.38 698.5,143.5C 699.5,138.167 700.5,132.833 701.5,127.5C 703.243,124.505 704.243,121.171 704.5,117.5 Z"/></g>
<g><path style="opacity:1" fill="#dc312c" d="M 497.5,137.5 C 496.855,141.432 496.855,144.932 497.5,148C 495.938,152.764 494.272,157.43 492.5,162C 492.833,162.333 493.167,162.667 493.5,163C 492.473,164.866 491.473,166.7 490.5,168.5C 488.281,166.935 487.948,164.935 489.5,162.5C 488.675,161.614 487.675,161.281 486.5,161.5C 486.5,160.167 486.5,158.833 486.5,157.5C 487.075,151.54 488.408,145.874 490.5,140.5C 490.15,146.952 489.15,153.285 487.5,159.5C 488.5,159.5 489.5,159.5 490.5,159.5C 493.079,152.308 495.412,144.975 497.5,137.5 Z"/></g>
<g><path style="opacity:1" fill="#fed8d8" d="M 299.5,164.5 C 300.833,164.5 302.167,164.5 303.5,164.5C 304.568,165.434 305.901,165.768 307.5,165.5C 293.01,166.496 278.343,166.829 263.5,166.5C 183.668,165.501 103.668,165.167 23.5,165.5C 23.5,167.167 23.5,168.833 23.5,170.5C 22.5386,168.735 22.2053,166.735 22.5,164.5C 114.833,164.5 207.167,164.5 299.5,164.5 Z"/></g>
<g><path style="opacity:1" fill="#380204" d="M 303.5,164.5 C 309.5,164.5 315.5,164.5 321.5,164.5C 319.5,165.167 317.5,165.833 315.5,166.5C 312.763,166.599 310.096,166.265 307.5,165.5C 305.901,165.768 304.568,165.434 303.5,164.5 Z"/></g>
<g><path style="opacity:1" fill="#feebe9" d="M 490.5,138.5 C 490.5,139.167 490.5,139.833 490.5,140.5C 488.408,145.874 487.075,151.54 486.5,157.5C 485.205,159.979 484.205,162.646 483.5,165.5C 430.331,165.832 377.331,165.499 324.5,164.5C 325.209,163.596 326.209,163.263 327.5,163.5C 378.997,164.499 430.664,164.832 482.5,164.5C 482.969,160.149 483.636,155.816 484.5,151.5C 485.938,146.828 487.938,142.495 490.5,138.5 Z"/></g>
<g><path style="opacity:1" fill="#de6c6a" d="M 263.5,166.5 C 234.167,166.5 204.833,166.5 175.5,166.5C 125.833,166.5 76.1667,166.5 26.5,166.5C 24.1534,167.607 23.82,169.274 25.5,171.5C 25.1667,171.5 24.8333,171.5 24.5,171.5C 23.8333,171.5 23.5,171.167 23.5,170.5C 23.5,168.833 23.5,167.167 23.5,165.5C 103.668,165.167 183.668,165.501 263.5,166.5 Z"/></g>
<g><path style="opacity:1" fill="#fed1ce" d="M 321.5,164.5 C 322.5,164.5 323.5,164.5 324.5,164.5C 377.331,165.499 430.331,165.832 483.5,165.5C 483.5,165.833 483.5,166.167 483.5,166.5C 427.5,166.5 371.5,166.5 315.5,166.5C 317.5,165.833 319.5,165.167 321.5,164.5 Z"/></g>
<g><path style="opacity:1" fill="#b54b48" d="M 307.5,165.5 C 310.096,166.265 312.763,166.599 315.5,166.5C 371.5,166.5 427.5,166.5 483.5,166.5C 410.167,167.833 336.833,167.833 263.5,166.5C 278.343,166.829 293.01,166.496 307.5,165.5 Z"/></g>
<g><path style="opacity:1" fill="#b91b1b" d="M 486.5,157.5 C 486.5,158.833 486.5,160.167 486.5,161.5C 487.092,164.631 486.092,166.964 483.5,168.5C 381.498,168.581 279.498,168.248 177.5,167.5C 176.833,167.5 176.167,167.5 175.5,167.5C 175.5,167.167 175.5,166.833 175.5,166.5C 204.833,166.5 234.167,166.5 263.5,166.5C 336.833,167.833 410.167,167.833 483.5,166.5C 483.5,166.167 483.5,165.833 483.5,165.5C 484.205,162.646 485.205,159.979 486.5,157.5 Z"/></g>
<g><path style="opacity:1" fill="#fececc" d="M 701.5,127.5 C 700.5,132.833 699.5,138.167 698.5,143.5C 695.928,151.31 693.595,159.31 691.5,167.5C 659.507,168.5 627.507,168.833 595.5,168.5C 597.073,158.543 599.407,148.876 602.5,139.5C 602.124,146.215 601.291,152.881 600,159.5C 597.797,161.669 596.964,164.335 597.5,167.5C 628.5,167.5 659.5,167.5 690.5,167.5C 691.368,162.763 692.534,158.096 694,153.5C 694.784,150.24 694.617,147.073 693.5,144C 694.449,143.383 695.282,143.549 696,144.5C 697.916,139.328 699.249,133.995 700,128.5C 700.383,127.944 700.883,127.611 701.5,127.5 Z"/></g>
<g><path style="opacity:1" fill="#ec0e0f" d="M 479.5,171.5 C 474.349,170.673 469.016,170.173 463.5,170C 470.346,169.828 477.013,169.328 483.5,168.5C 486.092,166.964 487.092,164.631 486.5,161.5C 487.675,161.281 488.675,161.614 489.5,162.5C 487.948,164.935 488.281,166.935 490.5,168.5C 491.756,168.539 492.756,168.039 493.5,167C 499.5,166.667 505.5,166.333 511.5,166C 535.591,165.587 559.591,165.42 583.5,165.5C 583.5,166.5 583.5,167.5 583.5,168.5C 585.5,168.5 587.5,168.5 589.5,168.5C 590.776,165.664 591.442,162.664 591.5,159.5C 593.676,156.218 595.176,152.551 596,148.5C 596.402,156.544 594.902,164.044 591.5,171C 554.168,171.5 516.835,171.667 479.5,171.5 Z"/></g>
<g><path style="opacity:1" fill="#ee0e0f" d="M 800.5,168.5 C 801.496,168.586 802.329,168.252 803,167.5C 803.483,168.448 803.649,169.448 803.5,170.5C 769.191,171.473 734.858,171.806 700.5,171.5C 700.5,170.167 700.5,168.833 700.5,167.5C 719.477,165.997 738.644,165.33 758,165.5C 770.833,165.667 783.667,165.833 796.5,166C 798.133,166.48 799.466,167.313 800.5,168.5 Z"/></g>
<g><path style="opacity:1" fill="#d41011" d="M 26.5,166.5 C 76.1667,166.5 125.833,166.5 175.5,166.5C 175.5,166.833 175.5,167.167 175.5,167.5C 126.162,167.167 76.8288,167.5 27.5,168.5C 79.1634,169.667 130.83,169.833 182.5,169C 180.618,168.802 178.952,168.302 177.5,167.5C 279.498,168.248 381.498,168.581 483.5,168.5C 477.013,169.328 470.346,169.828 463.5,170C 469.016,170.173 474.349,170.673 479.5,171.5C 429.502,170.875 379.502,170.542 329.5,170.5C 228.499,170.667 127.499,170.5 26.5,170C 25.3157,168.855 25.3157,167.688 26.5,166.5 Z"/></g>
<g><path style="opacity:1" fill="#de0d0a" d="M 175.5,167.5 C 176.167,167.5 176.833,167.5 177.5,167.5C 178.952,168.302 180.618,168.802 182.5,169C 130.83,169.833 79.1634,169.667 27.5,168.5C 76.8288,167.5 126.162,167.167 175.5,167.5 Z"/></g>
<g><path style="opacity:1" fill="#b2211e" d="M 698.5,143.5 C 698.873,153.145 696.54,161.978 691.5,170C 659.833,170.667 628.167,170.667 596.5,170C 595.944,169.617 595.611,169.117 595.5,168.5C 627.507,168.833 659.507,168.5 691.5,167.5C 693.595,159.31 695.928,151.31 698.5,143.5 Z"/></g>
<g><path style="opacity:1" fill="#ac2e2b" d="M 26.5,166.5 C 25.3157,167.688 25.3157,168.855 26.5,170C 127.499,170.5 228.499,170.667 329.5,170.5C 360.833,171.167 392.167,171.833 423.5,172.5C 290.831,172.671 158.165,172.337 25.5,171.5C 23.82,169.274 24.1534,167.607 26.5,166.5 Z"/></g>
<g><path style="opacity:1" fill="#bc1a19" d="M 329.5,170.5 C 379.502,170.542 429.502,170.875 479.5,171.5C 479.5,171.833 479.5,172.167 479.5,172.5C 461.167,172.5 442.833,172.5 424.5,172.5C 424.167,172.5 423.833,172.5 423.5,172.5C 392.167,171.833 360.833,171.167 329.5,170.5 Z"/></g>
<g><path style="opacity:1" fill="#ffe1e0" d="M 812.5,145.5 C 810.934,154.088 809.767,162.755 809,171.5C 807.66,172.868 806.326,174.201 805,175.5C 570.194,174.442 335.361,173.609 100.5,173C 74.9967,172.832 49.6634,172.332 24.5,171.5C 24.8333,171.5 25.1667,171.5 25.5,171.5C 158.165,172.337 290.831,172.671 423.5,172.5C 423.833,172.5 424.167,172.5 424.5,172.5C 551.332,173.5 678.332,173.833 805.5,173.5C 807.088,163.867 809.421,154.534 812.5,145.5 Z"/></g>
<g><path style="opacity:1" fill="#ad3231" d="M 815.5,132.5 C 814.293,136.787 813.293,141.12 812.5,145.5C 809.421,154.534 807.088,163.867 805.5,173.5C 678.332,173.833 551.332,173.5 424.5,172.5C 442.833,172.5 461.167,172.5 479.5,172.5C 587.862,172.827 696.195,172.494 804.5,171.5C 807.017,159.111 809.85,146.778 813,134.5C 813.708,133.619 814.542,132.953 815.5,132.5 Z"/></g>
</svg>
